<?xml version="1.0" encoding="UTF-8" standalone="no"?>
<!-- Created with Inkscape (http://www.inkscape.org/) -->

<svg
   xmlns:dc="http://purl.org/dc/elements/1.1/"
   xmlns:cc="http://creativecommons.org/ns#"
   xmlns:rdf="http://www.w3.org/1999/02/22-rdf-syntax-ns#"
   xmlns:svg="http://www.w3.org/2000/svg"
   xmlns="http://www.w3.org/2000/svg"
   xmlns:sodipodi="http://sodipodi.sourceforge.net/DTD/sodipodi-0.dtd"
   xmlns:inkscape="http://www.inkscape.org/namespaces/inkscape"
   width="728px"
   height="90px"
   id="svg5215"
   version="1.1"
   inkscape:version="0.48.4 r9939"
   sodipodi:docname="logo1.svg">
  <defs
     id="defs5217" />
  <sodipodi:namedview
     id="base"
     pagecolor="#ffffff"
     bordercolor="#666666"
     borderopacity="1.0"
     inkscape:pageopacity="0.0"
     inkscape:pageshadow="2"
     inkscape:zoom="1.6844262"
     inkscape:cx="370.66667"
     inkscape:cy="-7.4939173"
     inkscape:document-units="px"
     inkscape:current-layer="layer1"
     showgrid="false"
     inkscape:window-width="1535"
     inkscape:window-height="876"
     inkscape:window-x="65"
     inkscape:window-y="24"
     inkscape:window-maximized="1" />
  <metadata
     id="metadata5220">
    <rdf:RDF>
      <cc:Work
         rdf:about="">
        <dc:format>image/svg+xml</dc:format>
        <dc:type
           rdf:resource="http://purl.org/dc/dcmitype/StillImage" />
        <dc:title></dc:title>
      </cc:Work>
    </rdf:RDF>
  </metadata>
  <g
     id="layer1"
     inkscape:label="Layer 1"
     inkscape:groupmode="layer">
    <rect
       style="fill:#ffffff;fill-opacity:1;stroke:#000000;stroke-width:6;stroke-miterlimit:4;stroke-opacity:1;stroke-dasharray:none"
       id="rect5223"
       width="715.20325"
       height="70.547256"
       x="6.5304136"
       y="9.8540144"
       ry="34.43309" />
    <path
       id="path5273"
       d="m 65.949226,65.519556 c 0,3.0492 -2.474714,5.523913 -5.523912,5.523913 -3.0492,0 -5.523912,-2.474713 -5.523912,-5.523913 0,-3.049199 2.472502,-5.523912 5.523912,-5.523912 3.051408,0 5.523912,2.472505 5.523912,5.523912 z M 84.730527,29.061759 c 3.05141,0 5.523912,-2.472504 5.523912,-5.523912 0,-3.051409 -2.472502,-5.523912 -5.523912,-5.523912 -3.051409,0 -5.523911,2.472503 -5.523911,5.523912 0,3.051408 2.474712,5.523912 5.523911,5.523912 z M 100.28587,43.105753 95.427032,35.59321 C 95.223751,35.281684 94.943136,35.025374 94.62054,34.848609 l -5.17922,-2.788471 c -2.377491,-1.520181 -9.85466,-3.201659 -12.888392,-2.335509 -0.03977,0.0089 -0.07292,0.03094 -0.117111,0.04198 -0.311549,0.0464 -0.616469,0.148041 -0.897084,0.335854 l -8.175389,5.52389 c -0.0906,0.06408 -0.178977,0.132574 -0.262939,0.2077 l -5.744869,5.302977 c -0.897083,0.828587 -0.952322,2.225032 -0.125946,3.122115 0.437495,0.472847 1.031867,0.711479 1.62845,0.711479 0.534714,0 1.071639,-0.19444 1.498086,-0.585533 l 5.621131,-5.190291 4.788127,-3.237012 -5.665323,13.429758 -2.297948,4.489813 c -0.693803,1.356674 -0.156878,3.020475 1.199793,3.718698 0.402142,0.2077 0.830796,0.302709 1.255033,0.302709 1.003143,0 1.973142,-0.545761 2.461456,-1.502503 l 0.35574,-0.693803 0.05966,0.09502 4.640087,-6.628672 -1.913483,7.872658 -3.773937,10.40926 c -0.519249,1.429588 0.220957,3.016056 1.654965,3.537514 0.309339,0.114902 0.627515,0.165717 0.941274,0.165717 1.129088,0 2.189678,-0.696014 2.594028,-1.820682 l 7.291559,-20.107018 c 0.05746,-0.161298 0.0464,-0.322596 0.07071,-0.490523 l 4.184915,-12.161467 c 0,0 0.05304,-0.114903 0.136993,-0.287243 l 4.06118,2.185259 4.556123,7.037487 c 0.419818,0.65403 1.133507,1.009769 1.858243,1.009769 0.4154,0 0.828587,-0.117099 1.199792,-0.355739 1.020816,-0.665079 1.312486,-2.0328 0.649616,-3.058038 z"
       inkscape:connector-curvature="0" />
    <text
       xml:space="preserve"
       style="font-size:36px;font-style:normal;font-variant:normal;font-weight:bold;font-stretch:normal;text-align:start;line-height:125%;letter-spacing:0px;word-spacing:0px;writing-mode:lr-tb;text-anchor:start;fill:#000000;fill-opacity:1;stroke:none;font-family:Monospace;-inkscape-font-specification:Monospace Bold"
       x="121.70316"
       y="56.16058"
       id="text5792"
       sodipodi:linespacing="125%"><tspan
         sodipodi:role="line"
         id="tspan5817"
         x="121.70316"
         y="56.16058">Fantasy Football Radar</tspan></text>
    <g
       transform="matrix(0.19302802,0,0,0.19302802,566.24586,-18.709955)"
       id="layer1-9"
       inkscape:label="Ebene 1">
      <g
         transform="matrix(2.8428417,1.4908353,-1.4908353,2.8428417,85.009337,-2057.1417)"
         id="g4068">
        <g
           id="g4046"
           transform="matrix(0.83109018,-0.84335752,0.84335752,0.83109018,-425.72131,478.52845)">
          <path
             inkscape:connector-curvature="0"
             id="path3194"
             d="m 443.65385,563.57293 c -1.05193,-0.0129 -2.10701,0.0598 -3.12744,0.18048 l 0.06,2.75094 c 0.99036,-0.12733 2.00989,-0.19417 3.0337,-0.18162 12.83055,0.15709 23.11001,11.57671 22.93914,25.53274 -0.002,0.17643 -0.001,0.35569 -0.007,0.53121 l 2.50057,-0.0319 c 0.004,-0.15699 0.004,-0.31113 0.006,-0.46872 0.18944,-15.473 -11.18011,-28.13898 -25.40528,-28.31315 z"
             style="fill:#000000;fill-opacity:1;stroke:#000000;stroke-width:0;stroke-miterlimit:4;stroke-dasharray:none" />
          <path
             sodipodi:nodetypes="cccscccccc"
             inkscape:connector-curvature="0"
             id="path3194-4"
             d="m 442.89836,570.53348 c -0.79783,-0.01 -1.59802,0.0454 -2.37195,0.13688 l 0.0455,2.52833 c 0.75111,-0.0966 1.52436,-0.14725 2.30084,-0.13774 9.73108,0.11913 16.95911,8.33817 16.82952,18.92284 -0.002,0.1338 -10e-4,0.26976 -0.005,0.40289 l 2.46472,-0.0242 c 0.003,-0.11907 0.003,-0.23598 0.004,-0.35547 0.14368,-11.73519 -8.47933,-21.34145 -19.26811,-21.47354 z"
             style="fill:#000000;fill-opacity:1;stroke:#000000;stroke-width:0;stroke-miterlimit:4;stroke-dasharray:none" />
          <path
             sodipodi:nodetypes="cccccccccc"
             inkscape:connector-curvature="0"
             id="path3194-0"
             d="m 442.20847,576.88946 c -0.56577,-0.007 -1.13323,0.0322 -1.68206,0.0971 l 0.0323,2.42658 c 0.53265,-0.0685 1.081,-0.10442 1.63165,-0.0977 6.90079,0.46331 10.91426,5.09 11.13804,12.78552 -10e-4,0.0949 -7.7e-4,0.19129 -0.003,0.28572 l 2.54446,-0.0171 c 0.002,-0.0845 0.002,-0.16735 0.003,-0.25208 0.10189,-8.32201 -6.01312,-15.13429 -13.66399,-15.22797 z"
             style="fill:#000000;fill-opacity:1;stroke:#000000;stroke-width:0;stroke-miterlimit:4;stroke-dasharray:none" />
        </g>
        <g
           id="g4061"
           transform="translate(4.3272904,0)">
          <path
             id="path4401"
             d="m 428.82958,632.50381 c 1.51739,8.39514 3.18843,16.70366 3.25039,25.86381 13.43389,-7.07008 16.24573,-8.60045 29.67957,-15.67062 -4.84405,-3.37683 -9.59166,-7.39353 -13.56307,-11.22903 -6.14118,1.98174 -12.37667,2.63171 -19.36689,1.03584 z m 3.03559,3.5588 2.90054,0.34654 c 1.65734,7.68989 1.24429,15.11973 -0.19508,18.63703 -0.5999,-6.11993 -0.9108,-10.44519 -2.70546,-18.98357 z"
             style="fill:#000000;fill-opacity:1;stroke:none"
             inkscape:connector-curvature="0" />
          <path
             id="path3423-9-5"
             d="m 398.11826,602.8218 c 5.46403,15.3042 20.05405,26.26585 37.2409,26.32057 17.18753,0.0547 31.81943,-10.80285 37.38029,-26.07291 l -74.62119,-0.24766 z m 6.11343,4.37701 6.55964,0.18844 c 4.52018,8.23085 9.05564,11.77782 15.40988,16.82483 -9.13544,-2.75636 -16.94711,-7.80772 -21.96952,-17.01327 z"
             style="fill:#000000;fill-opacity:1;stroke:none"
             inkscape:connector-curvature="0" />
          <g
             transform="translate(2.1996971,2)"
             id="g4055">
            <rect
               style="fill:#000000;fill-opacity:1;stroke:#000000;stroke-width:0;stroke-linecap:round;stroke-linejoin:round;stroke-miterlimit:4;stroke-opacity:1;stroke-dasharray:none"
               id="rect4051"
               width="3.2829957"
               height="8.0812206"
               x="431.58765"
               y="594.76306" />
            <path
               sodipodi:type="arc"
               style="fill:#000000;fill-opacity:1;stroke:#000000;stroke-width:0;stroke-linecap:round;stroke-linejoin:round;stroke-miterlimit:4;stroke-opacity:1;stroke-dasharray:none"
               id="path4053"
               sodipodi:cx="433.22916"
               sodipodi:cy="594.00549"
               sodipodi:rx="3.4092648"
               sodipodi:ry="3.7880721"
               d="m 436.63842,594.00549 c 0,2.0921 -1.52638,3.78808 -3.40926,3.78808 -1.88289,0 -3.40927,-1.69598 -3.40927,-3.78808 0,-2.09209 1.52638,-3.78807 3.40927,-3.78807 1.88288,0 3.40926,1.69598 3.40926,3.78807 z" />
          </g>
        </g>
      </g>
    </g>
  </g>
</svg>
